<?xml version="1.0" ?><!DOCTYPE svg  PUBLIC '-//W3C//DTD SVG 1.1//EN'  'http://www.w3.org/Graphics/SVG/1.1/DTD/svg11.dtd'><svg enable-background="new 0 0 48 48" height="48px" id="Layer_3" version="1.1" viewBox="0 0 48 48" width="48px" xml:space="preserve" xmlns="http://www.w3.org/2000/svg" xmlns:xlink="http://www.w3.org/1999/xlink"><g><circle cx="23.999" cy="15" fill="#ffffff" r="4"/><path d="M24,0C15.78,0,9.113,6.614,9.01,14.81L9,14.792c0,0-0.017,0.752,0.092,2c0.033,0.18,0.66,3.566,1.956,6.081   c0,0.001,0,0.001,0.001,0.002L24,48l12.423-24c0,0,1.789-3.846,2.204-5.954c0.013-0.077,0.025-0.154,0.037-0.229   c0.009-0.056,0.02-0.115,0.026-0.167c0.211-1.418,0.269-2.645,0.284-3.15C38.708,6.448,32.115,0,24,0z M33.599,20.393L24,40   l-9.614-19.398c0,0,0-0.001-0.001-0.002c-0.91-1.836-1.289-4.217-1.289-4.217c-0.023-0.185-0.041-0.37-0.055-0.557   C12.997,15.281,13,14.999,13,14.999C13,8.925,17.925,4,24,4c5.965,0,10.809,4.75,10.983,10.671   C34.967,15.421,34.815,17.899,33.599,20.393z" fill="#ffffff"/></g></svg>