<?xml version="1.0" encoding="iso-8859-1"?>
<!-- Generator: Adobe Illustrator 19.0.0, SVG Export Plug-In . SVG Version: 6.00 Build 0)  -->
<svg version="1.1" id="Layer_1" xmlns="http://www.w3.org/2000/svg" xmlns:xlink="http://www.w3.org/1999/xlink" x="0px" y="0px"
	 viewBox="0 0 512 512" style="enable-background:new 0 0 512 512;" xml:space="preserve">
<g transform="translate(0 -1)">
	<g>
		<g>
			<path d="M503.467,495.933h-85.333v-85.768c43.059-4.292,76.8-40.73,76.8-84.898c0-47.053-38.281-85.333-85.333-85.333
				s-85.333,38.281-85.333,85.333c0,44.169,33.741,80.606,76.8,84.898v85.768h-128V9.533c0-4.719-3.823-8.533-8.533-8.533H25.6
				c-4.71,0-8.533,3.814-8.533,8.533v486.4H8.533c-4.71,0-8.533,3.814-8.533,8.533C0,509.186,3.823,513,8.533,513H25.6h76.8h85.333
				h76.8h238.933c4.719,0,8.533-3.814,8.533-8.533C512,499.748,508.186,495.933,503.467,495.933z M196.267,495.933H179.2v-68.267
				h-68.267v68.267H93.867v-76.8c0-4.719,3.823-8.533,8.533-8.533h85.333c4.71,0,8.533,3.814,8.533,8.533V495.933z M230.4,367.933
				c0,4.719-3.823,8.533-8.533,8.533h-153.6c-4.71,0-8.533-3.814-8.533-8.533V282.6c0-4.719,3.823-8.533,8.533-8.533h153.6
				c4.71,0,8.533,3.814,8.533,8.533V367.933z M230.4,248.467c0,4.719-3.823,8.533-8.533,8.533h-153.6
				c-4.71,0-8.533-3.814-8.533-8.533v-85.333c0-4.719,3.823-8.533,8.533-8.533h153.6c4.71,0,8.533,3.814,8.533,8.533V248.467z
				 M230.4,129c0,4.719-3.823,8.533-8.533,8.533h-153.6c-4.71,0-8.533-3.814-8.533-8.533V43.667c0-4.719,3.823-8.533,8.533-8.533
				h153.6c4.71,0,8.533,3.814,8.533,8.533V129z" fill="#ffffff"/>
			<path d="M76.8,120.467h136.533V52.2H76.8V120.467z M156.1,88.834l17.067-17.067c3.337-3.337,8.73-3.337,12.066,0
				c3.336,3.337,3.336,8.73,0,12.066L168.166,100.9c-1.664,1.664-3.849,2.5-6.033,2.5c-2.185,0-4.369-0.836-6.033-2.5
				C152.764,97.563,152.764,92.17,156.1,88.834z M104.9,88.834l17.067-17.067c3.337-3.337,8.73-3.337,12.066,0s3.337,8.73,0,12.066
				L116.966,100.9c-1.664,1.664-3.849,2.5-6.033,2.5c-2.185,0-4.369-0.836-6.033-2.5C101.564,97.563,101.564,92.17,104.9,88.834z" fill="#ffffff"/>
			<path d="M76.8,239.933h136.533v-68.267H76.8V239.933z M156.1,208.3l17.067-17.067c3.337-3.337,8.73-3.337,12.066,0
				c3.336,3.337,3.336,8.73,0,12.066l-17.067,17.067c-1.664,1.664-3.849,2.5-6.033,2.5c-2.185,0-4.369-0.836-6.033-2.5
				C152.764,217.03,152.764,211.637,156.1,208.3z M104.9,208.3l17.067-17.067c3.337-3.337,8.73-3.337,12.066,0s3.337,8.73,0,12.066
				l-17.067,17.067c-1.664,1.664-3.849,2.5-6.033,2.5c-2.185,0-4.369-0.836-6.033-2.5C101.564,217.03,101.564,211.637,104.9,208.3z"
				fill="#ffffff"/>
			<path d="M76.8,359.4h136.533v-68.267H76.8V359.4z M156.1,327.767l17.067-17.067c3.337-3.337,8.73-3.337,12.066,0
				c3.336,3.337,3.336,8.73,0,12.066l-17.067,17.067c-1.664,1.664-3.849,2.5-6.033,2.5c-2.185,0-4.369-0.836-6.033-2.5
				C152.764,336.497,152.764,331.104,156.1,327.767z M104.9,327.767l17.067-17.067c3.337-3.337,8.73-3.337,12.066,0
				s3.337,8.73,0,12.066l-17.067,17.067c-1.664,1.664-3.849,2.5-6.033,2.5c-2.185,0-4.369-0.836-6.033-2.5
				C101.564,336.497,101.564,331.104,104.9,327.767z" fill="#ffffff"/>
		</g>
	</g>
</g>
<g>
</g>
<g>
</g>
<g>
</g>
<g>
</g>
<g>
</g>
<g>
</g>
<g>
</g>
<g>
</g>
<g>
</g>
<g>
</g>
<g>
</g>
<g>
</g>
<g>
</g>
<g>
</g>
<g>
</g>
</svg>
