<?xml version="1.0" encoding="UTF-8" standalone="no"?>
<!-- Generator: Adobe Illustrator 18.0.0, SVG Export Plug-In . SVG Version: 6.00 Build 0)  -->

<svg
   version="1.1"
   id="Capa_1"
   x="0px"
   y="0px"
   viewBox="0 0 256 256"
   xml:space="preserve"
   sodipodi:docname="noimage.svg"
   width="256"
   height="256"
   inkscape:version="1.1.2 (b8e25be833, 2022-02-05)"
   xmlns:inkscape="http://www.inkscape.org/namespaces/inkscape"
   xmlns:sodipodi="http://sodipodi.sourceforge.net/DTD/sodipodi-0.dtd"
   xmlns="http://www.w3.org/2000/svg"
   xmlns:svg="http://www.w3.org/2000/svg"><defs
   id="defs63" /><sodipodi:namedview
   id="namedview61"
   pagecolor="#ffffff"
   bordercolor="#666666"
   borderopacity="1.0"
   inkscape:pageshadow="2"
   inkscape:pageopacity="0.0"
   inkscape:pagecheckerboard="0"
   showgrid="false"
   inkscape:zoom="1.8797255"
   inkscape:cx="141.51002"
   inkscape:cy="205.61513"
   inkscape:window-width="1920"
   inkscape:window-height="1009"
   inkscape:window-x="-8"
   inkscape:window-y="-8"
   inkscape:window-maximized="1"
   inkscape:current-layer="Capa_1" />
<g
   id="g28"
   transform="matrix(4.2351097,0,0,4.2351097,1.0639851,-4.9389733)">
	<g
   id="g20">
		<g
   id="g6">
			<rect
   x="1"
   y="4.5"
   style="fill:#ecf0f1"
   width="55"
   height="42"
   id="rect2" />
			<path
   style="fill:#545e73"
   d="M 57,47.5 H 0 V 3.5 H 57 Z M 2,45.5 H 55 V 5.5 H 2 Z"
   id="path4" />
		</g>
		<g
   id="g12">
			<rect
   x="5"
   y="8.5"
   style="fill:#545e73"
   width="47"
   height="34"
   id="rect8" />
			<path
   style="fill:#ecf0f1"
   d="M 53,43.5 H 4 V 7.5 H 53 Z M 6,41.5 H 51 V 9.5 H 6 Z"
   id="path10" />
		</g>
		<circle
   style="fill:#f3d55a"
   cx="15"
   cy="17.069"
   r="4.5689998"
   id="circle14" />
		<polygon
   style="fill:#11a085"
   points="32.983,37.483 37,41.5 51,41.5 51,32.611 50,31.5 38,20.5 27.5,32 "
   id="polygon16" />
		<polygon
   style="fill:#26b999"
   points="6,40.5 6,41.5 37,41.5 32.983,37.483 22.017,26.517 "
   id="polygon18" />
	</g>
	<g
   id="g26">
		<circle
   style="fill:#ed7161"
   cx="48"
   cy="44.5"
   r="12"
   id="circle22" />
		<path
   style="fill:#ffffff"
   d="m 49.414,44.5 3.536,-3.536 c 0.391,-0.391 0.391,-1.023 0,-1.414 -0.391,-0.391 -1.023,-0.391 -1.414,0 L 48,43.086 44.464,39.55 c -0.391,-0.391 -1.023,-0.391 -1.414,0 -0.391,0.391 -0.391,1.023 0,1.414 l 3.536,3.536 -3.536,3.536 c -0.391,0.391 -0.391,1.023 0,1.414 0.195,0.195 0.451,0.293 0.707,0.293 0.256,0 0.512,-0.098 0.707,-0.293 L 48,45.914 51.536,49.45 c 0.195,0.195 0.451,0.293 0.707,0.293 0.256,0 0.512,-0.098 0.707,-0.293 0.391,-0.391 0.391,-1.023 0,-1.414 z"
   id="path24" />
	</g>
</g>
<g
   id="g30">
</g>
<g
   id="g32">
</g>
<g
   id="g34">
</g>
<g
   id="g36">
</g>
<g
   id="g38">
</g>
<g
   id="g40">
</g>
<g
   id="g42">
</g>
<g
   id="g44">
</g>
<g
   id="g46">
</g>
<g
   id="g48">
</g>
<g
   id="g50">
</g>
<g
   id="g52">
</g>
<g
   id="g54">
</g>
<g
   id="g56">
</g>
<g
   id="g58">
</g>
</svg>
