<svg width="32" height="28" viewBox="0 0 32 28" fill="none" xmlns="http://www.w3.org/2000/svg">
<path fill-rule="evenodd" clip-rule="evenodd" d="M16 23.1377L22.6525 26.5821C22.915 26.7179 23.2059 26.7897 23.5015 26.7916C23.797 26.7936 24.0888 26.7256 24.3531 26.5933L29.9631 23.7883C30.2745 23.6327 30.5365 23.3935 30.7196 23.0975C30.9027 22.8014 30.9998 22.4602 31 22.1121V16.9296C30.9998 16.5815 30.9027 16.2403 30.7196 15.9442C30.5365 15.6482 30.2745 15.409 29.9631 15.2533L23.5 12.0208L17.0125 15.3808C16.7074 15.5389 16.4515 15.7778 16.273 16.0715C16.0944 16.3651 16 16.7022 16 17.0458V23.1377Z" stroke="black" stroke-linecap="round" stroke-linejoin="round"/>
<path fill-rule="evenodd" clip-rule="evenodd" d="M2.0125 23.6608L7.6525 26.5821C7.91502 26.7178 8.20592 26.7896 8.50146 26.7916C8.79701 26.7935 9.08883 26.7256 9.35312 26.5933L16 23.2708V16.9296C15.9998 16.5815 15.9027 16.2403 15.7196 15.9442C15.5365 15.6481 15.2745 15.4089 14.9631 15.2533L8.5 12.0208L2.0125 15.3808C1.70735 15.5389 1.45152 15.7778 1.27296 16.0715C1.0944 16.3651 0.999972 16.7022 1 17.0458V21.9958C0.999972 22.3395 1.0944 22.6765 1.27296 22.9702C1.45152 23.2638 1.70735 23.5027 2.0125 23.6608V23.6608ZM8.5 11.8877L15.1525 15.3321C15.415 15.4678 15.7059 15.5396 16.0015 15.5416C16.297 15.5435 16.5888 15.4756 16.8531 15.3433L23.5 12.0208V5.67957C23.4998 5.33145 23.4027 4.99026 23.2196 4.6942C23.0365 4.39815 22.7745 4.15892 22.4631 4.00332L16.8531 1.19832C16.5888 1.06602 16.297 0.998086 16.0015 1.00004C15.7059 1.002 15.415 1.07379 15.1525 1.20957L9.5125 4.13082C9.20735 4.2889 8.95152 4.52781 8.77296 4.82145C8.5944 5.11509 8.49997 5.45215 8.5 5.79582V11.8877Z" stroke="black" stroke-linecap="round" stroke-linejoin="round"/>
<path d="M9.14868 4.84517L15.1618 7.8508C15.4221 7.98084 15.709 8.04854 15.9999 8.04854C16.2909 8.04854 16.5778 7.98084 16.8381 7.8508L22.7874 4.87705M12.8106 2.92517L19.7499 6.3958M20.3106 14.1752L27.2499 17.6458M5.31056 14.1752L12.2499 17.6458M16.6487 16.0952L22.6618 19.1008C22.9221 19.2308 23.209 19.2985 23.4999 19.2985C23.7909 19.2985 24.0778 19.2308 24.3381 19.1008L30.2856 16.127M1.64868 16.0952L7.66181 19.1008C7.92206 19.2308 8.209 19.2985 8.49993 19.2985C8.79086 19.2985 9.07781 19.2308 9.33806 19.1008L15.2856 16.127M15.9999 8.2708V15.7708M23.4999 19.5208V26.0833M8.49993 19.5208V26.0833" stroke="black" stroke-linecap="round" stroke-linejoin="round"/>
</svg>
