<svg width="32" height="31" viewBox="0 0 32 31" fill="none" xmlns="http://www.w3.org/2000/svg">
<path d="M1 14.1626L15.7543 1.08994C15.823 1.03186 15.9101 1 16 1C16.0899 1 16.177 1.03186 16.2457 1.08994L23.6654 7.66134" stroke="#020202" stroke-miterlimit="10" stroke-linecap="round"/>
<path d="M31 14.1626L25.6302 9.40451" stroke="#020202" stroke-miterlimit="10" stroke-linecap="round"/>
<path d="M27.2503 14.1626V28.9654C27.2503 29.5083 26.7594 29.9494 26.1545 29.9494H5.8454C5.24051 29.9494 4.74963 29.5087 4.74963 28.9654V14.1626" stroke="#020202" stroke-miterlimit="10" stroke-linecap="round"/>
<path d="M11.635 25.1297V17.777H20.3649V29.9494" stroke="#020202" stroke-miterlimit="10" stroke-linecap="round"/>
<path d="M23.6631 7.66134V4.30438C23.6631 4.1124 23.7394 3.92827 23.8751 3.79252C24.0109 3.65677 24.195 3.58051 24.387 3.58051H24.9095C25.1015 3.58051 25.2856 3.65677 25.4214 3.79252C25.5571 3.92827 25.6334 4.1124 25.6334 4.30438V9.40451" stroke="#020202" stroke-miterlimit="10" stroke-linecap="round"/>
</svg>
