<svg width="30" height="22" viewBox="0 0 30 22" fill="none" xmlns="http://www.w3.org/2000/svg">
<path d="M25.4524 6.91667L25.3253 6.60598L24.3503 4.22265L24.3503 4.22257C23.4272 1.96501 21.2222 0.5 18.7205 0.5H11.2791C8.77803 0.5 6.57238 1.96502 5.64869 4.22267L4.6737 6.60598L4.5466 6.91667H4.21093H0.703499C0.557143 6.91667 0.479406 7.04388 0.505765 7.14657L0.505884 7.14703L0.857446 8.52203L0.857558 8.52246C0.877296 8.59995 0.953601 8.66667 1.05506 8.66667H2.23104H3.58644L2.55575 9.54688C1.86978 10.1327 1.43729 10.9748 1.43729 11.9167V14.6667C1.43729 15.4555 1.74472 16.1731 2.24759 16.7357L2.37479 16.878V17.0689V20.1667C2.37479 20.8923 2.97993 21.5 3.74979 21.5H5.62479C6.39466 21.5 6.9998 20.8923 6.9998 20.1667V18.3333V17.8333H7.4998H22.4998H22.9998V18.3333V20.1667C22.9998 20.8923 23.605 21.5 24.3748 21.5H26.2498C27.0197 21.5 27.6248 20.8923 27.6248 20.1667V17.0689V16.8779L27.7522 16.7355C28.2548 16.1736 28.5623 15.4561 28.5623 14.6667V11.9167C28.5623 10.9748 28.1298 10.1326 27.4443 9.54676L26.4145 8.66667H27.7692H28.9451C29.0466 8.66667 29.1229 8.59995 29.1426 8.52247L29.1428 8.52203L29.4943 7.14718L25.4524 6.91667ZM25.4524 6.91667H25.7881M25.4524 6.91667H25.7881M25.7881 6.91667H29.2961M25.7881 6.91667H29.2961M29.2961 6.91667C29.4423 6.91667 29.5206 7.04385 29.4943 7.14703L29.2961 6.91667ZM8.20482 5.2058L8.20479 5.20586L7.03702 8.0607L6.75506 8.75H7.4998H22.4998H23.2446L22.9626 8.0607L21.7948 5.20586L21.7948 5.2058C21.2888 3.96925 20.0685 3.16667 18.7205 3.16667H11.2791C9.93113 3.16667 8.71081 3.96925 8.20482 5.2058ZM3.24979 12.8276C3.24979 13.4934 3.48002 14.0853 3.91642 14.5107C4.35167 14.9349 4.95245 15.1552 5.62479 15.1552C5.74053 15.1552 5.87052 15.1577 6.00953 15.1603C6.48152 15.1693 7.05755 15.1803 7.5331 15.103C7.84733 15.052 8.19064 14.9539 8.46351 14.7411C8.76299 14.5076 8.9373 14.1668 8.9373 13.7414C8.9373 13.3476 8.78936 12.9519 8.59044 12.6029C8.38786 12.2474 8.11096 11.9027 7.80192 11.6014C7.49278 11.3001 7.13977 11.0309 6.77695 10.8345C6.41999 10.6412 6.01968 10.5 5.62479 10.5C4.95245 10.5 4.35167 10.7203 3.91642 11.1445C3.48002 11.5699 3.24979 12.1618 3.24979 12.8276ZM21.0623 13.7414C21.0623 14.1668 21.2366 14.5076 21.5361 14.7411C21.809 14.9539 22.1523 15.052 22.4665 15.103C22.9421 15.1803 23.5181 15.1693 23.9901 15.1603C24.1291 15.1577 24.2591 15.1552 24.3748 15.1552C25.0472 15.1552 25.6479 14.9349 26.0832 14.5107C26.5196 14.0853 26.7498 13.4934 26.7498 12.8276C26.7498 12.1618 26.5196 11.5699 26.0832 11.1445C25.6479 10.7203 25.0472 10.5 24.3748 10.5C23.9799 10.5 23.5796 10.6412 23.2227 10.8345C22.8598 11.0309 22.5068 11.3001 22.1977 11.6014C21.8887 11.9027 21.6118 12.2474 21.4092 12.6029C21.2103 12.9519 21.0623 13.3476 21.0623 13.7414Z" stroke="black"/>
</svg>
