<svg width="30" height="22" viewBox="0 0 30 22" fill="none" xmlns="http://www.w3.org/2000/svg">
<path d="M26.9663 21.024H2.65014C2.29405 21.0236 1.95263 20.882 1.70083 20.6302C1.44903 20.3784 1.30742 20.037 1.30709 19.6809V12.9264H1.06732C0.784376 12.9261 0.513113 12.8135 0.313042 12.6134C0.112968 12.4134 0.000419617 12.1421 8.39233e-05 11.8592V9.16418C0.000419617 8.88124 0.112968 8.60997 0.313042 8.4099C0.513113 8.20983 0.784376 8.09728 1.06732 8.09695H6.66667C7.30709 8.09695 7.92129 8.35135 8.37414 8.8042C8.82698 9.25705 9.08139 9.87124 9.08139 10.5117C9.08139 11.1521 8.82698 11.7663 8.37414 12.2191C7.92129 12.672 7.30709 12.9264 6.66667 12.9264H2.0327V15.2576H9.26801C9.31693 15.2556 9.36576 15.2634 9.41156 15.2807C9.45736 15.2981 9.49919 15.3245 9.53452 15.3583C9.56986 15.3922 9.59798 15.4329 9.61719 15.478C9.63639 15.523 9.6463 15.5715 9.6463 15.6204C9.6463 15.6694 9.63639 15.7178 9.61719 15.7629C9.59798 15.8079 9.56986 15.8486 9.53452 15.8825C9.49919 15.9164 9.45736 15.9428 9.41156 15.9601C9.36576 15.9774 9.31693 15.9853 9.26801 15.9832H2.0327V19.679C2.03287 19.8427 2.09798 19.9997 2.21373 20.1154C2.32949 20.2312 2.48644 20.2963 2.65014 20.2965H26.9663C27.4985 20.2958 28.0086 20.0841 28.3849 19.7078C28.7612 19.3315 28.9729 18.8213 28.9736 18.2891V15.982H13.9108C13.8172 15.9781 13.7288 15.9381 13.6639 15.8705C13.5991 15.8029 13.5629 15.7128 13.5629 15.6192C13.5629 15.5255 13.5991 15.4354 13.6639 15.3678C13.7288 15.3002 13.8172 15.2603 13.9108 15.2563H28.9736V2.7304C28.9729 2.19824 28.7612 1.68806 28.3849 1.31176C28.0086 0.935458 27.4985 0.723759 26.9663 0.723089H2.65014C2.48644 0.723256 2.32949 0.788361 2.21373 0.904118C2.09798 1.01987 2.03287 1.17682 2.0327 1.34053V6.92533C2.03475 6.97425 2.02688 7.02307 2.00957 7.06887C1.99225 7.11467 1.96586 7.1565 1.93197 7.19183C1.89808 7.22717 1.85739 7.25529 1.81235 7.2745C1.76731 7.2937 1.71886 7.30361 1.6699 7.30361C1.62093 7.30361 1.57248 7.2937 1.52744 7.2745C1.4824 7.25529 1.44172 7.22717 1.40782 7.19183C1.37393 7.1565 1.34754 7.11467 1.33022 7.06887C1.31291 7.02307 1.30504 6.97425 1.30709 6.92533V1.34306C1.30759 0.987012 1.44925 0.645691 1.70101 0.393927C1.95278 0.142163 2.2941 0.000502065 2.65014 0H26.9663C27.6908 0.000837161 28.3855 0.289039 28.8978 0.801382C29.4102 1.31372 29.6984 2.00837 29.6992 2.73293V18.2879C29.6992 19.013 29.4114 19.7084 28.899 20.2215C28.3865 20.7345 27.6914 21.0231 26.9663 21.024ZM8.35577 10.5104C8.35527 10.0626 8.17715 9.63324 7.86049 9.31658C7.54383 8.99992 7.11449 8.8218 6.66667 8.8213H1.06732C0.97677 8.82147 0.889977 8.85751 0.825947 8.92154C0.761917 8.98557 0.72587 9.07237 0.725704 9.16292V11.8579C0.725704 11.9485 0.761696 12.0354 0.825762 12.0995C0.889828 12.1635 0.976719 12.1995 1.06732 12.1995H6.66667C7.11449 12.199 7.54383 12.0209 7.86049 11.7042C8.17715 11.3876 8.35527 10.9582 8.35577 10.5104Z" fill="black"/>
</svg>
