<svg width="30" height="29" viewBox="0 0 30 29" fill="none" xmlns="http://www.w3.org/2000/svg">
<path d="M20.2352 0.15109L7.62129 6.55071C7.57686 6.5711 7.53702 6.60026 7.50413 6.63642C7.47125 6.67259 7.446 6.71502 7.42991 6.76118C7.41382 6.80733 7.40721 6.85626 7.41048 6.90504C7.41376 6.95381 7.42684 7.00142 7.44896 7.04501C7.47108 7.0886 7.50176 7.12728 7.53919 7.15873C7.57661 7.19017 7.62 7.21374 7.66675 7.22801C7.7135 7.24229 7.76265 7.24698 7.81126 7.2418C7.85986 7.23662 7.90692 7.22168 7.94962 7.19788L20.5629 0.798264C20.7227 0.717281 20.9081 0.703041 21.0785 0.75867C21.2488 0.814299 21.3901 0.93525 21.4713 1.09496L24.487 7.04162C24.5327 7.12359 24.6084 7.18469 24.6981 7.21209C24.7879 7.2395 24.8848 7.23109 24.9685 7.18863C25.0522 7.14617 25.1162 7.07296 25.1471 6.98434C25.178 6.89572 25.1734 6.79858 25.1342 6.71329L22.1185 0.766633C21.9501 0.43555 21.6572 0.184799 21.3041 0.0693999C20.951 -0.0459991 20.5666 -0.0166201 20.2352 0.15109Z" fill="black"/>
<path d="M21.379 4.11573C21.3338 4.10072 21.2861 4.09484 21.2386 4.09843C21.1912 4.10201 21.1449 4.11499 21.1025 4.1366C20.7439 4.31787 20.3281 4.34961 19.9462 4.22486C19.5642 4.10012 19.2473 3.82906 19.0648 3.47108C19.0433 3.42856 19.0136 3.39069 18.9774 3.35966C18.9413 3.32862 18.8993 3.30502 18.854 3.29022C18.8087 3.27541 18.7609 3.26968 18.7134 3.27336C18.6659 3.27704 18.6196 3.29006 18.5771 3.31166L12.1926 6.55069C12.1107 6.59639 12.0496 6.67206 12.0222 6.76181C11.9948 6.85157 12.0032 6.94845 12.0456 7.03215C12.0881 7.11584 12.1613 7.17985 12.2499 7.21074C12.3386 7.24164 12.4357 7.23702 12.521 7.19787L18.6081 4.10877C18.8858 4.48665 19.2748 4.76817 19.7205 4.91384C20.1662 5.05951 20.6464 5.06203 21.0937 4.92106L22.1691 7.03781C22.2148 7.11978 22.2905 7.18088 22.3802 7.20828C22.47 7.23569 22.5669 7.22728 22.6506 7.18482C22.7343 7.14236 22.7983 7.06915 22.8292 6.98053C22.8601 6.89191 22.8554 6.79477 22.8163 6.70948L21.5903 4.29855C21.5689 4.25564 21.5392 4.21738 21.5029 4.186C21.4666 4.15462 21.4245 4.13074 21.379 4.11573Z" fill="black"/>
<path d="M2.73293 28.9709H27.0491C27.4052 28.9705 27.7466 28.8289 27.9984 28.5771C28.2502 28.3253 28.3918 27.9839 28.3921 27.6278V20.8733H28.6319C28.9148 20.873 29.1861 20.7604 29.3862 20.5603C29.5863 20.3603 29.6988 20.089 29.6991 19.8061V17.1111C29.6988 16.8281 29.5863 16.5569 29.3862 16.3568C29.1861 16.1567 28.9148 16.0442 28.6319 16.0438H23.0325C22.3921 16.0438 21.7779 16.2983 21.3251 16.7511C20.8722 17.2039 20.6178 17.8181 20.6178 18.4586C20.6178 19.099 20.8722 19.7132 21.3251 20.166C21.7779 20.6189 22.3921 20.8733 23.0325 20.8733H27.6665V23.2045H20.4312C20.3823 23.2025 20.3335 23.2103 20.2877 23.2276C20.2419 23.245 20.2 23.2714 20.1647 23.3052C20.1294 23.3391 20.1012 23.3798 20.082 23.4249C20.0628 23.4699 20.0529 23.5184 20.0529 23.5673C20.0529 23.6163 20.0628 23.6647 20.082 23.7098C20.1012 23.7548 20.1294 23.7955 20.1647 23.8294C20.2 23.8633 20.2419 23.8897 20.2877 23.907C20.3335 23.9243 20.3823 23.9322 20.4312 23.9301H27.6665V27.6259C27.6663 27.7896 27.6012 27.9466 27.4855 28.0623C27.3697 28.1781 27.2128 28.2432 27.0491 28.2434H2.73293C2.20077 28.2427 1.69059 28.031 1.31429 27.6547C0.937988 27.2784 0.726289 26.7682 0.725619 26.236V23.9289H15.7884C15.882 23.925 15.9704 23.885 16.0353 23.8174C16.1001 23.7498 16.1364 23.6597 16.1364 23.5661C16.1364 23.4724 16.1001 23.3823 16.0353 23.3147C15.9704 23.2471 15.882 23.2072 15.7884 23.2032H0.725619V10.6773C0.726289 10.1451 0.937988 9.63496 1.31429 9.25866C1.69059 8.88236 2.20077 8.67066 2.73293 8.66999H27.0491C27.2128 8.67016 27.3697 8.73526 27.4855 8.85102C27.6012 8.96677 27.6663 9.12372 27.6665 9.28743V14.8722C27.6645 14.9211 27.6723 14.97 27.6897 15.0158C27.707 15.0616 27.7334 15.1034 27.7673 15.1387C27.8011 15.1741 27.8418 15.2022 27.8869 15.2214C27.9319 15.2406 27.9804 15.2505 28.0293 15.2505C28.0783 15.2505 28.1267 15.2406 28.1718 15.2214C28.2168 15.2022 28.2575 15.1741 28.2914 15.1387C28.3253 15.1034 28.3517 15.0616 28.369 15.0158C28.3863 14.97 28.3942 14.9211 28.3921 14.8722V9.28996C28.3916 8.93391 28.25 8.59259 27.9982 8.34083C27.7464 8.08906 27.4051 7.9474 27.0491 7.9469H2.73293C2.00837 7.94774 1.31372 8.23594 0.801382 8.74828C0.289039 9.26062 0.000837161 9.95527 0 10.6798V26.2348C-4.84553e-07 26.9599 0.287832 27.6553 0.800265 28.1684C1.3127 28.6814 2.00782 28.97 2.73293 28.9709ZM21.3434 18.4573C21.3439 18.0095 21.5221 17.5801 21.8387 17.2635C22.1554 16.9468 22.5847 16.7687 23.0325 16.7682H28.6319C28.7224 16.7684 28.8092 16.8044 28.8733 16.8684C28.9373 16.9325 28.9733 17.0193 28.9735 17.1098V19.8048C28.9735 19.8954 28.9375 19.9823 28.8735 20.0463C28.8094 20.1104 28.7225 20.1464 28.6319 20.1464H23.0325C22.5847 20.1459 22.1554 19.9678 21.8387 19.6511C21.5221 19.3345 21.3439 18.9051 21.3434 18.4573Z" fill="black"/>
<path d="M23.2635 18.153C23.224 18.1263 23.1794 18.1081 23.1326 18.0992C23.086 18.0897 23.0381 18.0897 22.9915 18.0992C22.9682 18.1039 22.9453 18.1106 22.9232 18.1195C22.879 18.1379 22.8388 18.1648 22.8049 18.1985C22.7372 18.2667 22.6993 18.3588 22.6992 18.4548C22.699 18.4786 22.7013 18.5023 22.7062 18.5256C22.7105 18.549 22.7173 18.5719 22.7264 18.5939C22.7358 18.6159 22.747 18.6371 22.76 18.6572C22.7735 18.6766 22.7886 18.695 22.8049 18.7122C22.8217 18.7292 22.8404 18.7443 22.8606 18.7571C22.8806 18.7702 22.9018 18.7814 22.9238 18.7907C22.9459 18.7997 22.9688 18.8067 22.9921 18.8116C23.0153 18.8161 23.0388 18.8185 23.0624 18.8185C23.0861 18.8184 23.1099 18.8161 23.1332 18.8116C23.18 18.8021 23.2245 18.7837 23.2642 18.7571C23.2839 18.744 23.3023 18.7289 23.3192 18.7122C23.3357 18.6954 23.3505 18.6769 23.3635 18.6572C23.3769 18.6374 23.3881 18.6162 23.397 18.5939C23.4064 18.572 23.4134 18.5491 23.4179 18.5256C23.423 18.5023 23.4255 18.4786 23.4255 18.4548C23.4249 18.3587 23.3868 18.2668 23.3192 18.1985C23.3018 18.182 23.2832 18.1668 23.2635 18.153Z" fill="black"/>
<path d="M18.0423 23.2033C17.9487 23.2072 17.8602 23.2471 17.7954 23.3147C17.7305 23.3823 17.6943 23.4724 17.6943 23.5661C17.6943 23.6598 17.7305 23.7498 17.7954 23.8174C17.8602 23.885 17.9487 23.925 18.0423 23.9289H18.1739C18.2228 23.9309 18.2716 23.9231 18.3174 23.9057C18.3632 23.8884 18.4051 23.862 18.4404 23.8281C18.4757 23.7942 18.5039 23.7536 18.5231 23.7085C18.5423 23.6635 18.5522 23.615 18.5522 23.5661C18.5522 23.5171 18.5423 23.4686 18.5231 23.4236C18.5039 23.3786 18.4757 23.3379 18.4404 23.304C18.4051 23.2701 18.3632 23.2437 18.3174 23.2264C18.2716 23.2091 18.2228 23.2012 18.1739 23.2033H18.0423Z" fill="black"/>
</svg>
